<?xml version="1.0" encoding="UTF-8"?>
<!-- Do not edit this file with editors other than draw.io -->
<!DOCTYPE svg PUBLIC "-//W3C//DTD SVG 1.1//EN" "http://www.w3.org/Graphics/SVG/1.1/DTD/svg11.dtd">
<svg xmlns="http://www.w3.org/2000/svg" style="background: transparent; background-color: transparent; color-scheme: light dark;" xmlns:xlink="http://www.w3.org/1999/xlink" version="1.1" width="316px" height="316px" viewBox="-0.5 -0.5 316 316" content="&lt;mxfile host=&quot;app.diagrams.net&quot; agent=&quot;Mozilla/5.0 (Windows NT 10.0; Win64; x64) AppleWebKit/537.36 (KHTML, like Gecko) Chrome/138.0.0.0 Safari/537.36&quot; version=&quot;26.1.1&quot; scale=&quot;1&quot; border=&quot;0&quot;&gt;&#10;  &lt;diagram name=&quot;Seite-1&quot; id=&quot;PlcR2VPE5FL_ibhFGYoG&quot;&gt;&#10;    &lt;mxGraphModel dx=&quot;1473&quot; dy=&quot;1106&quot; grid=&quot;1&quot; gridSize=&quot;10&quot; guides=&quot;1&quot; tooltips=&quot;1&quot; connect=&quot;1&quot; arrows=&quot;1&quot; fold=&quot;1&quot; page=&quot;1&quot; pageScale=&quot;1&quot; pageWidth=&quot;827&quot; pageHeight=&quot;1169&quot; math=&quot;0&quot; shadow=&quot;0&quot;&gt;&#10;      &lt;root&gt;&#10;        &lt;mxCell id=&quot;0&quot; /&gt;&#10;        &lt;mxCell id=&quot;1&quot; parent=&quot;0&quot; /&gt;&#10;        &lt;mxCell id=&quot;2&quot; value=&quot;&quot; style=&quot;whiteSpace=wrap;html=1;aspect=fixed;rounded=1;strokeWidth=16;fontSize=160;fontStyle=1;fillColor=#0070C0;strokeColor=#000000;fontColor=#ffffff;perimeterSpacing=1;dashed=1;fontFamily=Lucida Console;horizontal=1;spacing=2;&quot; vertex=&quot;1&quot; parent=&quot;1&quot;&gt;&#10;          &lt;mxGeometry x=&quot;447.5&quot; y=&quot;160&quot; width=&quot;300&quot; height=&quot;300&quot; as=&quot;geometry&quot; /&gt;&#10;        &lt;/mxCell&gt;&#10;        &lt;mxCell id=&quot;3&quot; value=&quot;&quot; style=&quot;pointerEvents=1;shadow=0;dashed=0;html=1;strokeColor=#FFFFFF;fillColor=#505050;labelPosition=center;verticalLabelPosition=bottom;verticalAlign=top;outlineConnect=0;align=center;shape=mxgraph.office.concepts.search;strokeWidth=6;perimeterSpacing=0;gradientColor=none;&quot; vertex=&quot;1&quot; parent=&quot;1&quot;&gt;&#10;          &lt;mxGeometry x=&quot;477.5&quot; y=&quot;190&quot; width=&quot;240&quot; height=&quot;240&quot; as=&quot;geometry&quot; /&gt;&#10;        &lt;/mxCell&gt;&#10;      &lt;/root&gt;&#10;    &lt;/mxGraphModel&gt;&#10;  &lt;/diagram&gt;&#10;&lt;/mxfile&gt;&#10;"><defs/><g><g data-cell-id="0"><g data-cell-id="1"><g data-cell-id="85rmfjVDJS7jIwPpMAB0-1"/><g data-cell-id="85rmfjVDJS7jIwPpMAB0-2"><g><rect x="7.5" y="8" width="300" height="300" rx="45" ry="45" fill="#0070c0" stroke="#000000" stroke-width="16" stroke-dasharray="48 48" pointer-events="all" style="fill: light-dark(rgb(0, 112, 192), rgb(76, 172, 241)); stroke: light-dark(rgb(0, 0, 0), rgb(237, 237, 237));"/></g></g><g data-cell-id="85rmfjVDJS7jIwPpMAB0-3"/><g data-cell-id="85rmfjVDJS7jIwPpMAB0-4"><g><rect x="37.5" y="38" width="240" height="240" fill="none" stroke="none" pointer-events="all"/><path d="M 195.26 188.75 C 224.16 188.75 262.36 163.85 262.36 121.67 C 262.36 78.5 226.68 52.42 195.26 52.42 C 153.54 52.42 125.78 84.28 125.78 121.67 C 125.78 161.83 161.01 188.75 195.26 188.75 Z M 72.68 269.46 C 63.28 278 50.86 277.41 44.13 270.2 C 37.5 262.34 37.95 251.33 45.27 242.88 L 102.62 185.49 C 107.57 181.34 114.89 178.57 120.58 179.81 L 128.75 171.66 C 119.4 158.81 111.78 144.15 111.18 121.67 C 111.18 80.03 143.3 38 195.26 38 C 240.83 38 277.5 75.64 277.5 121.67 C 277.5 167.31 238.85 203.52 195.26 203.52 C 176.8 203.17 159.38 198.33 143.55 186.13 L 135.38 194.33 C 135.92 200.7 134.34 206.33 130.28 211.17 Z" fill="#505050" stroke="#ffffff" stroke-width="6" stroke-miterlimit="10" pointer-events="all" style="fill: light-dark(rgb(80, 80, 80), rgb(168, 168, 168)); stroke: light-dark(rgb(255, 255, 255), rgb(18, 18, 18));"/></g></g><g data-cell-id="85rmfjVDJS7jIwPpMAB0-5"/></g></g></g></svg>